<svg width="91" height="91" viewBox="0 0 91 91" fill="none" xmlns="http://www.w3.org/2000/svg">
<path fill-rule="evenodd" clip-rule="evenodd" d="M82.4655 54.3308V36.3246C82.4655 34.1514 82.4344 32.288 82.3722 31.0461C82.3101 29.8043 82.2481 28.5631 82.186 27.0108C82.1855 24.148 81.6698 21.3081 80.6635 18.6277C79.9668 16.6262 78.8064 14.8171 77.2767 13.3492C75.7917 11.8772 74.0274 10.7174 72.0875 9.93537C69.3655 8.99219 66.5157 8.46875 63.636 8.38307H59.4721C57.8104 8.09794 56.1226 7.99506 54.4384 8.07382H30.6685C29.4655 8.33899 28.2324 8.44218 27.0019 8.38307C24.1529 8.47258 21.3341 8.99605 18.6433 9.93537C16.6831 10.7314 14.8911 11.8889 13.3612 13.3492C11.8307 14.8105 10.6791 16.6225 10.0055 18.6277C8.95288 21.297 8.41517 24.1417 8.42081 27.0108C8.38973 28.5631 8.32743 29.8043 8.26529 31.0461C8.20315 32.288 8.17198 34.1514 8.17198 36.3246V54.3308C8.17198 56.504 8.20315 58.0581 8.26529 59.3C8.32743 60.8523 8.38973 62.0923 8.42081 63.6446C8.48933 66.5063 9.02461 69.3382 10.0055 72.0277C10.7542 73.9962 11.8958 75.7925 13.3612 77.3061C14.9705 78.6628 16.7452 79.8091 18.6433 80.72C21.3341 81.6593 24.1529 82.1828 27.0019 82.2723H63.636C66.5157 82.1866 69.3655 81.6632 72.0875 80.72C74.0274 79.9379 75.7917 78.7781 77.2767 77.3061C78.7407 75.7854 79.8913 73.9916 80.6635 72.0277C81.6006 69.3287 82.1142 66.5005 82.186 63.6446C82.2481 62.0923 82.3101 60.8523 82.3722 59.3C82.4344 58.0581 82.4655 56.504 82.4655 54.3308ZM90.6064 36.0154C90.6375 38.1886 90.6375 41.2932 90.6375 45.3292C90.6375 49.3652 90.6375 52.4698 90.6064 54.643C90.5753 56.8163 90.5441 58.3674 90.5131 59.6092C90.482 61.1615 90.4201 62.4046 90.358 63.9569C90.3318 67.6754 89.6262 71.3578 88.276 74.823C87.1482 77.8704 85.3544 80.6268 83.025 82.8938C80.8148 85.2696 78.0651 87.0804 75.0081 88.1723C71.498 89.5373 67.7747 90.2736 64.0089 90.3461H59.7209C58.0275 90.6284 56.309 90.7313 54.5939 90.6554H36.0129C34.2874 90.7345 32.5583 90.6317 30.8548 90.3461H26.629C22.8631 90.2736 19.1395 89.5373 15.6294 88.1723C12.5781 87.087 9.83739 85.2749 7.644 82.8938C5.28531 80.6449 3.47746 77.8838 2.36151 74.823C0.998825 71.3603 0.282915 67.6775 0.248825 63.9569C0.186681 62.4046 0.155492 61.1615 0.12442 59.6092C0.0933481 58.3674 0.0621848 56.8163 0.0311127 54.643C4.0561e-05 52.4698 0 49.3652 0 45.3292C0 41.2932 4.0561e-05 38.1886 0.0311127 36.0154C0.0621848 33.8421 0.0933481 32.2892 0.12442 30.7369C0.155492 29.4951 0.186681 28.2538 0.248825 26.7015C0.320643 22.8839 1.0347 19.1038 2.36151 15.5231C3.48547 12.5561 5.29566 9.89662 7.644 7.76154C9.83739 5.38042 12.5781 3.56833 15.6294 2.48309C19.1395 1.11809 22.8631 0.384832 26.629 0.312281C28.0552 0.371607 29.4834 0.265621 30.8859 0H59.7209C61.134 0.264423 62.5724 0.370389 64.0089 0.312281C67.7733 0.398219 71.4943 1.13102 75.0081 2.48309C78.0651 3.57497 80.8148 5.38571 83.025 7.76154C85.3447 9.91486 87.1407 12.5697 88.276 15.5231C89.5907 19.1061 90.2945 22.8859 90.358 26.7015C90.4201 28.2538 90.482 29.4951 90.5131 30.7369C90.5441 32.2892 90.5753 33.8421 90.6064 36.0154ZM30.1713 45.3292C30.1713 49.3432 31.7672 53.1902 34.6079 56.0286C37.4487 58.867 41.3015 60.4642 45.3189 60.4642C49.3363 60.4642 53.1892 58.867 56.0299 56.0286C58.8707 53.1902 60.4666 49.3432 60.4666 45.3292C60.5266 43.3543 60.1606 41.3899 59.3939 39.5687C58.6273 37.7474 57.4778 36.1107 56.0231 34.7723C54.6577 33.3035 53.0038 32.1323 51.1647 31.3311C49.3255 30.53 47.3408 30.1154 45.3345 30.1154C43.3282 30.1154 41.3434 30.53 39.5043 31.3311C37.6652 32.1323 36.0109 33.3035 34.6455 34.7723C33.181 36.1045 32.0228 37.7374 31.2504 39.5596C30.478 41.3818 30.1099 43.3513 30.1713 45.3292ZM68.6386 45.3292C68.6855 48.3903 68.106 51.4285 66.9359 54.258C65.7658 57.0874 64.0294 59.6478 61.8336 61.783C59.6733 63.9481 57.1066 65.6651 54.2806 66.8371C51.4547 68.0092 48.4253 68.6138 45.3656 68.6138C42.3058 68.6138 39.2761 68.0092 36.4502 66.8371C33.6242 65.6651 31.0575 63.9481 28.8972 61.783C26.7014 59.6478 24.9654 57.0874 23.7953 54.258C22.6252 51.4285 22.0457 48.3903 22.0926 45.3292C22.0926 39.162 24.5444 33.2453 28.909 28.8844C33.2735 24.5236 39.1932 22.0749 45.3656 22.0749C51.538 22.0749 57.4573 24.5236 61.8218 28.8844C66.1864 33.2453 68.6386 39.162 68.6386 45.3292ZM65.6865 24.8369C65.1854 24.3542 64.7871 23.7762 64.5148 23.1361C64.2426 22.4959 64.1022 21.8063 64.1022 21.1108C64.1022 20.4153 64.2426 19.7286 64.5148 19.0885C64.7871 18.4484 65.1854 17.8704 65.6865 17.3877C66.1628 16.8463 66.7595 16.4233 67.4286 16.1537C68.0977 15.8841 68.8205 15.7756 69.5394 15.8354C70.2543 15.77 70.9746 15.8745 71.6396 16.1446C72.3046 16.4147 72.8951 16.8425 73.3616 17.3877C73.8564 17.8749 74.2486 18.4537 74.5154 19.0946C74.7823 19.7355 74.9185 20.4257 74.9156 21.1199C74.9127 21.814 74.7709 22.5004 74.4987 23.1391C74.2265 23.7777 73.8293 24.3538 73.3305 24.8369C72.8648 25.3746 72.2788 25.7952 71.6202 26.0648C70.9617 26.3345 70.2489 26.4457 69.5394 26.3892C68.8205 26.449 68.0977 26.3404 67.4286 26.0709C66.7595 25.8013 66.1628 25.3782 65.6865 24.8369Z" fill="#221E20"/>
</svg>
