<svg width="97" height="97" viewBox="0 0 97 97" fill="none" xmlns="http://www.w3.org/2000/svg">
<path fill-rule="evenodd" clip-rule="evenodd" d="M48.039 1.76391e-06C57.545 -0.00216928 66.8381 2.81599 74.7424 8.09668C82.6467 13.3774 88.807 20.8833 92.4441 29.666C96.0811 38.4487 97.0312 48.1127 95.1744 57.4355C93.3176 66.7584 88.7372 75.321 82.0127 82.04C75.2882 88.7591 66.7219 93.3334 57.3975 95.1826C48.0731 97.0319 38.4097 96.0738 29.63 92.4297C20.8502 88.7856 13.3486 82.6186 8.07437 74.71C2.8001 66.8014 -0.00986549 57.506 2.60251e-05 48C0.00691997 35.265 5.07163 23.0541 14.0803 14.0527C23.089 5.05136 35.304 -0.00344731 48.039 1.76391e-06ZM23.828 71.1006H31.48V43.7998C31.48 38.0998 30.564 29.2004 34.228 23.9004C37.565 19.2004 44.028 20.2998 46.66 21.7998C48.2158 22.8855 49.4495 24.3719 50.231 26.1006C50.231 26.1006 52.253 33.4004 49.424 36.9004C46.335 40.7004 38.373 40.7998 38.373 40.7998L38.431 43.2002C38.431 43.2002 42.612 42.9 43.672 45C44.588 46.7 42.345 50.5 42.345 50.5C42.345 50.5 37.855 59.4004 42.167 68.9004C47.993 81.8004 62.209 76.9 66.227 72C67.6044 70.4594 68.7738 68.7452 69.705 66.9004C72.44 60.1004 72.048 50.9998 72.05 50.7998C72.136 41.6998 72.25 24.5 72.25 24.5H64.539V57.4004C64.7489 60.8132 64.5387 64.2391 63.913 67.6006C63.744 68.3006 60.136 77.0002 51.79 74.7002C48.878 73.8002 45.507 70.8002 45.09 67.2002C44.251 59.7002 53.663 49.4998 55.728 37.7998C56.655 32.4998 54.544 20.1 43.31 19C39.534 18.7 33.07 20.1006 29.774 24.1006C27.6944 26.6556 26.1014 29.5701 25.074 32.7002C24.107 35.8002 23.928 42.3004 23.909 47.9004C23.88 58.2004 23.828 71.1006 23.828 71.1006Z" fill="black"/>
</svg>
