<svg width="1421" height="176" viewBox="0 0 1421 176" fill="none" xmlns="http://www.w3.org/2000/svg">
<path fill-rule="evenodd" clip-rule="evenodd" d="M243.568 171.339L148.689 0.139803H95.4807L0 171.339H53.2086L69.0265 141.303H173.926L189.744 171.339H243.568ZM156.29 106.764H86.9629L121.934 39.1814L156.29 106.764ZM422.827 175.842C448.252 177.2 473.371 169.785 493.971 154.825C502.323 147.926 508.952 139.168 513.333 129.262C517.714 119.356 519.726 108.577 519.209 97.7585V0.139803H469.35V97.7585C469.686 103.605 468.744 109.443 466.591 114.889C464.438 120.335 461.125 125.253 456.882 129.291C446.76 136.143 434.817 139.807 422.594 139.807C410.37 139.807 398.427 136.143 388.306 129.291C384.101 125.232 380.823 120.318 378.697 114.874C376.571 109.431 375.647 103.592 375.988 97.7585V0.139803H326.13V97.7585C325.616 108.592 327.643 119.382 332.052 129.291C336.46 139.2 343.126 147.951 351.517 154.825C372.186 169.774 397.352 177.185 422.827 175.842ZM767.794 171.339H827.102L766.893 111.266C780.574 108.719 793.086 101.884 802.616 91.7454C810.842 82.7191 815.35 70.9132 815.234 58.7022C815.468 47.4637 812.174 36.4401 805.815 27.1698C799.092 18.0854 789.751 11.2759 779.046 7.64894C766.368 1.92472 752.494 -0.651461 738.606 0.139803H634.954V171.339H684.812V115.769H713.7L767.794 171.339ZM765.977 58.7022C766.09 62.1664 765.376 65.6149 763.895 68.7487C762.413 71.8824 760.207 74.6145 757.459 76.7271C750.151 81.4174 741.485 83.5377 732.838 82.7403H684.482V34.6789H732.838C741.434 33.9235 750.04 36.0271 757.309 40.6774C760.094 42.7655 762.336 45.5044 763.845 48.6412C765.353 51.778 766.085 55.2234 765.977 58.7022ZM975.955 100.75H1083.89V69.218H975.955V33.1683H1089.97V0.139803H927.599V171.339H1093.32V138.296H975.955V100.75ZM1420.97 171.339L1326.09 0.139803H1272.91L1177.43 171.339H1230.64L1246.46 141.303H1351.36L1367.18 171.339H1421H1420.97ZM1333.69 106.764H1264.36L1299.34 39.1814L1333.69 106.764Z" fill="black"/>
</svg>
