<svg width="95" height="77" viewBox="0 0 95 77" fill="none" xmlns="http://www.w3.org/2000/svg">
<path d="M94.9251 9.00168H94.8318C91.4232 10.7103 87.7238 11.7635 83.9258 12.1063V11.797C85.4652 11.0114 86.8535 9.96044 88.0272 8.69244C89.9113 6.52002 91.3284 3.98264 92.1907 1.24015C89.7341 2.76126 87.119 4.01108 84.3916 4.96629C82.9226 5.37615 81.428 5.6867 79.9174 5.89707C76.0824 2.25478 71.0371 0.156205 65.7483 0.000120233C60.6397 -0.0179057 55.7331 1.99162 52.1076 5.58782C50.2169 7.32144 48.7137 9.43399 47.6964 11.788C46.679 14.1419 46.1708 16.6855 46.2042 19.2493C46.1956 20.817 46.3727 22.3802 46.7322 23.9063C43.8779 23.7698 41.0347 23.4563 38.2185 22.9725C31.6708 21.2418 25.3885 18.6308 19.5441 15.2109C14.684 11.9044 10.3123 7.9338 6.55618 3.41398C4.99755 6.28 4.12519 9.46813 4.00806 12.7278C3.93556 17.4726 5.54243 22.0911 8.54483 25.7678C9.51094 27.2093 10.8254 28.3827 12.3666 29.1817V29.494C9.36507 29.3338 6.44095 28.4845 3.82181 27.0109C3.79191 29.666 4.29944 32.297 5.31396 34.7512C6.32849 37.2054 7.82915 39.4308 9.72559 41.2909C11.6719 43.1602 13.9612 44.6373 16.468 45.6386C17.9905 45.949 18.8916 46.2571 19.2024 46.2571C18.4855 46.5248 17.7477 46.7331 16.9964 46.8786H14.0135C12.8247 46.9131 11.6359 46.8101 10.4713 46.5693C11.8959 50.924 14.7828 54.6512 18.6433 57.1232C21.6257 59.1381 25.1415 60.2189 28.7417 60.2278C26.9916 61.6178 25.1314 62.8644 23.1797 63.954C17.6502 66.943 11.4752 68.5413 5.18881 68.6109C3.07591 68.6109 1.3361 68.3017 0 68.3017C8.89635 74.0877 19.3081 77.1118 29.9225 76.994C43.0482 77.1105 55.7729 72.4785 65.7483 63.954C73.074 57.4754 78.6428 49.2518 81.9372 40.0478C84.0151 34.3749 85.1179 28.3943 85.1995 22.354V18.9371C87.1517 17.5919 88.9445 16.0296 90.5438 14.2801C92.183 12.677 93.6514 10.9077 94.9251 9.00168Z" fill="#221E20"/>
</svg>
