<svg width="16" height="20" viewBox="0 0 16 20" fill="none" xmlns="http://www.w3.org/2000/svg">
<path fill-rule="evenodd" clip-rule="evenodd" d="M0.117188 5.95574H15.9772V19.9557H0.117188V5.95574ZM1.85718 7.70874H14.2372V18.1667H1.85718V7.70874ZM11.2971 4.40874C11.1415 3.66329 10.7339 2.99417 10.1429 2.51387C9.55198 2.03357 8.81365 1.77139 8.05212 1.77139C7.2906 1.77139 6.55239 2.03357 5.96143 2.51387C5.37047 2.99417 4.9628 3.66329 4.80713 4.40874H3.04712C3.20331 3.19034 3.79818 2.07061 4.72034 1.25912C5.6425 0.447635 6.82876 0 8.05713 0C9.2855 0 10.4718 0.447635 11.3939 1.25912C12.3161 2.07061 12.9109 3.19034 13.0671 4.40874H11.2971Z" fill="#221E20"/>
</svg>
