<svg width="17" height="20" viewBox="0 0 17 20" fill="none" xmlns="http://www.w3.org/2000/svg">
<path fill-rule="evenodd" clip-rule="evenodd" d="M8.4447 9.57668C7.52753 9.57787 6.63061 9.30698 5.86743 8.79829C5.10426 8.28961 4.50916 7.56598 4.15735 6.71896C3.80554 5.87195 3.71291 4.93962 3.89111 4.03993C4.06932 3.14024 4.51033 2.31362 5.15845 1.66466C5.80656 1.01571 6.63265 0.573578 7.5321 0.39421C8.43156 0.214843 9.36396 0.306294 10.2114 0.657005C11.0589 1.00772 11.7833 1.60192 12.293 2.36444C12.8026 3.12696 13.0747 4.02351 13.0747 4.94068C13.0737 6.16905 12.5857 7.34692 11.7179 8.21625C10.8501 9.08559 9.67306 9.57551 8.4447 9.57868V9.57668ZM8.4447 2.06568C7.87591 2.06469 7.31962 2.23244 6.84619 2.54771C6.37276 2.86297 6.00355 3.31158 5.78516 3.83677C5.56676 4.36196 5.50898 4.94013 5.61926 5.49813C5.72955 6.05613 6.00289 6.56887 6.40466 6.97149C6.80644 7.3741 7.31858 7.6485 7.87634 7.75995C8.43411 7.8714 9.01244 7.8149 9.53809 7.5976C10.0637 7.3803 10.5131 7.01196 10.8293 6.53919C11.1456 6.06642 11.3145 5.51048 11.3147 4.94169C11.3131 4.18063 11.0104 3.45114 10.4727 2.91262C9.93488 2.3741 9.20575 2.07033 8.4447 2.06769V2.06568ZM16.8347 19.9657H15.0747V17.6187C15.0736 16.2344 14.5235 14.9071 13.5448 13.928C12.5661 12.949 11.239 12.3983 9.85474 12.3967H7.03479C5.6505 12.3983 4.32338 12.949 3.34473 13.928C2.36607 14.9071 1.81576 16.2344 1.8147 17.6187V19.9667H0.0546875V17.6187C0.056275 15.7677 0.792134 13.9929 2.10071 12.6838C3.40928 11.3746 5.18379 10.6381 7.03479 10.6357H9.85474C11.7057 10.6381 13.4802 11.3746 14.7888 12.6838C16.0974 13.9929 16.8331 15.7677 16.8347 17.6187V19.9657Z" fill="#221E20"/>
</svg>
