<svg width="17" height="17" viewBox="0 0 17 17" fill="none" xmlns="http://www.w3.org/2000/svg">
<path fill-rule="evenodd" clip-rule="evenodd" d="M16.2576 16.3335C16.1802 16.411 16.0881 16.4725 15.9869 16.5144C15.8856 16.5564 15.7771 16.578 15.6675 16.578C15.5579 16.578 15.4494 16.5564 15.3482 16.5144C15.247 16.4725 15.155 16.411 15.0776 16.3335L11.5976 12.8555C10.163 13.9871 8.35016 14.5276 6.53008 14.3664C4.71001 14.2052 3.0204 13.3544 1.80706 11.9882C0.59372 10.622 -0.0516063 8.84376 0.00322892 7.01739C0.0580642 5.19101 0.808864 3.45465 2.10198 2.16372C3.3951 0.872797 5.1327 0.124924 6.95916 0.0731869C8.78563 0.0214499 10.5628 0.669762 11.9269 1.88542C13.2911 3.10108 14.139 4.79214 14.2972 6.61249C14.4553 8.43283 13.9117 10.2448 12.7776 11.6775L16.2576 15.1535C16.3363 15.2305 16.3988 15.3224 16.4415 15.4239C16.4841 15.5254 16.5062 15.6344 16.5062 15.7445C16.5062 15.8545 16.4841 15.9635 16.4415 16.065C16.3988 16.1665 16.3363 16.2584 16.2576 16.3355V16.3335ZM10.7776 3.66345C10.0668 2.95252 9.161 2.46835 8.17498 2.27217C7.18896 2.07599 6.16693 2.17661 5.23809 2.56132C4.30926 2.94602 3.5154 3.59752 2.95684 4.43342C2.39829 5.26933 2.10015 6.2521 2.10015 7.25745C2.10015 8.2628 2.39829 9.24557 2.95684 10.0815C3.5154 10.9174 4.30926 11.5689 5.23809 11.9536C6.16693 12.3383 7.18896 12.4389 8.17498 12.2427C9.161 12.0466 10.0668 11.5624 10.7776 10.8515C11.7299 9.89818 12.2647 8.60587 12.2647 7.25845C12.2647 5.91104 11.7299 4.61873 10.7776 3.66546V3.66345Z" fill="#221E20"/>
</svg>
